<svg width="63" height="64" viewBox="0 0 63 64" fill="none" xmlns="http://www.w3.org/2000/svg">
<path d="M32.8203 3.582C43.9393 3.582 52.8513 12.747 52.8513 23.866C52.8513 28.257 52.0013 31.08 49.4563 34.646C46.0833 39.334 42.8363 42.114 42.8363 47.885V52.299C42.8363 57.773 38.1253 61.975 32.6523 61.975C27.1133 61.975 22.4673 57.584 22.4673 52.045C22.4673 50.729 23.4423 49.582 24.7593 49.582C26.7533 49.582 26.6683 52.15 27.3903 53.997C28.2813 56.246 30.1263 57.561 32.5673 57.561C35.6863 57.561 38.4233 55.249 38.4233 52.129V47.206C38.4233 37.254 48.6083 33.733 48.6083 23.781C48.6083 14.975 41.4563 7.825 32.6513 7.825C27.1973 7.825 23.3573 9.607 20.0883 13.936C18.1573 16.504 17.2873 18.392 16.8633 21.574C16.6083 23.547 16.5683 26.158 14.5723 26.158C13.2563 26.158 12.2803 25.012 12.2803 23.696C12.2793 12.494 21.6163 3.582 32.8203 3.582Z" fill="#FC6464"/>
<path d="M32.2253 9.692C40.1193 9.692 46.9083 15.719 46.9083 23.612C46.9083 24.63 46.2293 25.648 45.2113 25.648C44.1073 25.648 43.8533 24.354 43.6833 23.272C43.3013 20.896 43.1093 19.368 41.8153 17.332C39.6943 14 36.6183 12.918 32.6503 12.918C28.8943 12.918 26.2213 14.17 23.9923 17.161C22.7823 18.775 22.0273 20.932 21.6463 22.927C21.3493 24.561 21.6813 25.819 20.0053 25.819C18.9653 25.819 18.3923 24.737 18.3923 23.696C18.3943 16.015 24.5473 9.692 32.2273 9.692H32.2253ZM7.9463 41.01L15.2913 48.355L13.4573 50.189L6.1123 42.844L7.9463 41.01ZM11.6413 37.316L18.9873 44.662L17.1523 46.497L9.8063 39.151L11.6413 37.316ZM15.4603 33.45L22.8053 40.797L20.9713 42.631L13.6263 35.284L15.4603 33.45ZM19.8973 29.138L27.2423 36.485L25.4073 38.319L18.0623 30.972L19.8973 29.138Z" fill="#FC6464"/>
<path d="M24.0108 25.259L31.3558 32.604L29.5218 34.438L22.1768 27.093L24.0108 25.259ZM28.1918 20.687L35.5368 28.034L33.7018 29.868L26.3568 22.521L28.1918 20.687ZM48.8548 4.494L51.8368 7.476L49.9098 9.403L46.9278 6.421L48.8548 4.494ZM52.7328 0.59L55.7138 3.572L53.7858 5.499L50.8048 2.517L52.7328 0.59Z" fill="#FC6464"/>
</svg>
