<svg width="338" height="333" viewBox="0 0 338 333" fill="none" xmlns="http://www.w3.org/2000/svg">
<path d="M337.965 164.823C338.03 199.509 327.055 233.317 306.628 261.351C290.122 284.066 268.064 302.166 242.564 313.92C217.064 325.674 188.974 330.688 160.982 328.484C132.99 326.279 106.032 316.929 82.6863 301.329C59.3404 285.728 40.3878 264.398 27.6412 239.379C14.8946 214.361 8.78046 186.49 9.88354 158.433C10.9866 130.376 19.27 103.071 33.9415 79.1304C48.6129 55.1896 69.1817 35.4136 93.6803 21.6939C118.179 7.97427 145.788 0.76985 173.867 0.769775C178.371 0.769775 182.83 0.949808 187.243 1.30988C209.75 3.13712 231.637 9.59421 251.533 20.2764C271.428 30.9585 288.902 45.6354 302.859 63.387C306.538 68.0476 309.956 72.9083 313.098 77.9467C329.392 103.991 338.011 134.102 337.965 164.823Z" fill="#455A64"/>
<path opacity="0.2" d="M337.965 164.823C338.03 199.509 327.055 233.317 306.628 261.351C290.122 284.066 268.064 302.166 242.564 313.92C217.064 325.674 188.974 330.688 160.982 328.484C132.99 326.279 106.032 316.929 82.6863 301.329C59.3404 285.728 40.3878 264.398 27.6412 239.379C14.8946 214.361 8.78046 186.49 9.88354 158.433C10.9866 130.376 19.27 103.071 33.9415 79.1304C48.6129 55.1896 69.1817 35.4136 93.6803 21.6939C118.179 7.97427 145.788 0.76985 173.867 0.769775C178.371 0.769775 182.83 0.949808 187.243 1.30988C209.75 3.13712 231.637 9.59421 251.533 20.2764C271.428 30.9585 288.902 45.6354 302.859 63.387C306.538 68.0476 309.956 72.9083 313.098 77.9467C329.392 103.991 338.011 134.102 337.965 164.823Z" fill="white"/>
<g opacity="0.5">
<path d="M209.305 242.275C207.237 247.791 210.684 248.021 210.914 250.32C211.144 252.618 210.914 256.985 204.249 263.65C197.584 270.315 186.552 268.936 184.254 271.694C181.955 274.452 178.048 286.173 172.532 290.08C167.016 293.987 166.097 291.689 158.283 293.298C150.469 294.907 144.493 305.019 142.195 309.845C139.896 314.672 142.654 322.716 137.138 322.946C131.623 323.176 129.094 311.224 124.038 304.789C118.982 298.354 117.373 292.608 115.764 285.024C114.155 277.439 116.684 261.581 115.764 255.376C114.845 249.17 98.2971 238.139 92.3216 230.554C86.346 222.97 78.0721 207.801 78.5317 202.745C79.2321 197.838 81.6805 193.349 85.4267 190.104C88.1846 188.036 87.0355 186.886 87.4951 185.048C87.9548 183.209 90.2531 182.749 90.7128 180.451C91.1724 178.153 89.3338 171.258 87.0355 170.109C84.7372 168.96 83.1284 172.867 81.7494 172.177C80.3704 171.488 76.2335 166.661 74.6246 166.202C73.0158 165.742 73.4755 169.189 71.1772 164.823C68.8789 160.456 67.7297 149.424 65.8911 147.585C64.0525 145.747 62.6735 150.803 58.3067 147.585C53.9399 144.368 52.1013 138.162 50.2627 137.243C48.424 136.324 45.8959 137.473 43.9998 133.796C42.1037 130.118 45.6661 123.453 43.9998 124.143C42.3335 124.832 38.7711 130.118 37.8518 125.062C36.9325 120.006 42.4484 102.998 41.5291 93.8052C40.6098 84.612 43.8274 74.9591 50.2627 67.1449C50.2627 67.1449 51.182 62.0886 52.1013 58.871C53.0206 55.6534 72.786 42.7829 75.0843 39.1056C76.0381 37.5772 76.3599 35.164 76.7046 32.5669C104.858 11.8506 138.911 0.706135 173.865 0.769926C178.37 0.769926 182.829 0.949958 187.241 1.31003C187.391 1.52836 187.54 1.72372 187.701 1.91908C189.689 4.44721 191.838 6.05602 197.653 8.20493C203.467 10.3538 204.858 13.1118 203.628 15.4101C202.399 17.7084 200.411 18.1566 198.112 18.3175C195.814 18.4783 193.677 17.2487 191.217 18.7771C188.758 20.3055 186.322 28.5794 183.104 29.039C179.887 29.4987 174.21 21.6845 172.992 19.3862C171.774 17.0879 175.75 12.1925 173.865 9.89418C171.981 7.59588 168.694 8.05554 163.523 7.59588C158.352 7.13622 146.171 9.07829 146.63 11.1123C147.09 13.1463 164.408 10.8135 164.867 14.7896C165.327 18.7656 152.146 25.4652 149.848 24.9021C147.55 24.339 144.493 20.3055 141.115 19.8458C137.736 19.3862 134.99 22.1441 132.875 22.4544C130.761 22.7647 128.278 20.1561 125.038 20.7652C121.797 21.3742 121.05 24.1322 119.361 25.2124C117.672 26.2926 113.696 26.2811 113.236 28.7288C112.776 31.1765 118.292 32.5669 119.671 34.0953C121.05 35.6237 117.982 40.8408 119.361 41.9095C120.74 42.9782 129.324 35.4743 131.462 33.6356C133.599 31.797 135.449 23.8334 140.046 23.9828C144.642 24.1322 146.171 31.9464 147.711 32.7163C149.25 33.4862 152.606 30.8777 157.662 31.9464C162.719 33.0151 166.246 44.0584 167.166 47.4254C168.085 50.7925 170.234 54.171 168.395 55.5499C166.557 56.9289 158.283 54.6306 157.203 52.4817C156.122 50.3328 162.719 47.1152 162.259 46.3567C161.799 45.5983 157.973 44.5181 155.985 45.7132C153.996 46.9083 153.066 49.4135 150.928 50.034C148.791 50.6546 143.114 44.2078 141.574 46.0465C140.034 47.8851 143.114 53.7113 144.642 55.0903C146.171 56.4693 151.848 57.2277 152.307 58.7676C152.767 60.3074 148.469 63.6629 143.263 63.3642C138.058 63.0654 133.76 59.0663 131.772 60.7556C129.784 62.4448 130.853 66.8806 129.474 68.4204C128.095 69.9603 120.591 68.8801 116.913 72.8562C113.236 76.8322 111.547 82.8193 107.87 86.1863C104.192 89.5533 102.515 85.267 97.6077 90.0245C92.7008 94.7819 91.9424 105.343 91.7815 109.02C91.6206 112.697 91.7815 115.605 90.5634 115.145C89.3453 114.685 87.6445 111.468 87.1849 109.48C86.7252 107.492 88.2651 104.113 88.2651 102.895C88.2651 101.677 81.2093 95.3795 77.0723 94.7705C72.9354 94.1614 69.2581 97.5284 66.2014 99.9761C63.1446 102.424 57.6172 101.976 55.6292 103.964C53.6412 105.952 52.1013 123.58 53.6297 127.717C55.158 131.854 57.1576 131.854 62.0644 129.705C66.9713 127.556 64.2019 123.419 67.1207 124.338C68.4244 124.836 69.5465 125.717 70.3385 126.866C71.1305 128.016 71.5552 129.378 71.5564 130.773C71.5564 133.233 65.7417 139.047 66.5002 140.736C67.2586 142.426 72.3264 140.426 74.774 141.196C77.2217 141.966 78.4513 143.494 77.6929 149.78C76.9344 156.066 77.3826 160.962 81.0599 163.03C84.7372 165.098 86.8056 160.042 88.4145 160.732C90.0233 161.421 92.3216 165.098 94.6199 164.869C96.9182 164.639 95.769 162.57 100.136 161.191C104.503 159.812 102.894 158.893 103.813 156.135C104.732 153.377 107.49 151.079 110.478 152.458C113.466 153.837 111.397 155.905 111.627 158.204C111.857 160.502 117.143 160.732 121.28 162.111C125.417 163.49 127.715 162.111 135.989 164.869C144.263 167.627 144.723 175.901 148.17 177.279C151.618 178.658 163.109 176.36 171.383 182.336C179.657 188.311 177.359 199.343 181.496 202.561C185.633 205.778 201.031 210.145 207.007 211.294C212.982 212.443 213.902 208.307 218.728 209.456C223.555 210.605 226.313 211.984 227.921 218.649C229.335 224.464 211.374 236.76 209.305 242.275Z" fill="#455A64"/>
<path d="M85.806 124.752C85.9554 126.062 89.7935 126.59 94.3901 129.199C98.9867 131.807 100.665 139.461 103.124 139.311C105.583 139.162 104.801 135.634 105.721 134.715C106.64 133.795 108.18 131.807 105.721 129.808C103.262 127.808 100.883 123.534 96.4127 122.913C91.9425 122.292 91.1725 120.465 89.173 120.615C88.6627 120.616 88.1591 120.731 87.6986 120.951C87.2381 121.171 86.8321 121.49 86.51 121.886C86.1879 122.282 85.9576 122.744 85.8359 123.24C85.7141 123.735 85.7039 124.252 85.806 124.752Z" fill="#455A64"/>
<path d="M111.087 137.622C110.409 139.507 111.087 140.84 115.994 142.069C120.901 143.299 125.486 140.84 123.958 139.852C122.43 138.863 120.131 139.311 121.051 137.622C121.97 135.933 121.648 133.485 117.672 133.945C113.696 134.405 111.697 135.944 111.087 137.622Z" fill="#455A64"/>
<path d="M128.245 138.151C126.578 138.392 125.648 141.3 127.325 143.138C129.003 144.977 129.015 144.678 131.003 143.138C132.991 141.598 136.059 140.84 135.3 139.312C134.542 137.783 129.934 137.91 128.245 138.151Z" fill="#455A64"/>
<path d="M141.575 144.414C142.333 142.116 146.171 144.414 147.86 146.816C149.55 149.217 148.78 152.791 147.86 155.4C146.941 158.008 146.332 161.065 144.183 159.847C142.034 158.629 144.332 154.94 144.034 152.791C143.735 150.642 140.965 146.287 141.575 144.414Z" fill="#455A64"/>
<path d="M207.616 16.5822C206.812 18.5127 210.523 19.1907 212.672 20.4203C214.821 21.6499 216.499 22.4084 217.729 20.4203C218.958 18.4323 217.269 16.1225 215.58 15.6628C213.89 15.2032 208.34 14.7435 207.616 16.5822Z" fill="#455A64"/>
<path d="M236.574 34.5088C237.987 36.0027 240.401 35.7384 242.09 37.8873C243.779 40.0363 243.159 43.702 245.308 44.7822C247.456 45.8625 248.985 44.7822 249.134 43.2424C249.284 41.7025 246.066 37.8873 246.376 37.1174C246.687 36.3475 250.823 38.1861 251.743 40.4844C252.662 42.7827 250.823 46.0003 252.961 46.6209C255.098 47.2414 254.65 44.472 255.569 43.8629C256.489 43.2539 258.477 43.5527 258.327 41.714C258.178 39.8754 255.719 35.8878 253.731 34.5088C251.743 33.1299 250.203 31.6015 246.836 30.8316C243.469 30.0616 240.251 30.6822 238.562 32.0611C236.873 33.4401 235.701 33.5895 236.574 34.5088Z" fill="#455A64"/>
<path d="M302.857 63.3872C302.764 64.0069 302.46 64.5754 301.995 64.996C298.778 67.2943 294.951 59.3307 290.504 57.8023C286.057 56.274 284.069 50.5972 283.149 51.8268C282.23 53.0563 282.54 54.7341 281.161 56.7221C279.782 58.7102 277.783 58.262 276.863 62.0887C275.944 65.9153 281.161 72.9711 279.932 75.2694C278.702 77.5677 277.174 76.7978 274.726 76.6484C272.278 76.499 272.727 78.6364 269.52 77.7171C266.314 76.7978 269.049 72.8102 263.993 68.0643C258.937 63.3183 257.259 62.3989 258.339 60.25C259.419 58.1011 257.868 55.0444 260.166 54.7341C262.465 54.4238 264.303 57.8023 265.832 58.7217C267.36 59.641 269.36 56.883 269.509 54.4238C269.658 51.9647 264.154 48.6091 262.154 46.7015C260.155 44.794 260.017 37.8761 260.775 36.4971C261.534 35.1181 263.844 35.5778 264.453 32.2108C264.82 30.2342 261.683 26.9247 259.029 24.5344C275.844 34.7607 290.688 47.92 302.857 63.3872Z" fill="#455A64"/>
<path d="M325.738 200.722C326.197 195.815 323.75 195.505 326.197 186.473C328.645 177.44 323.6 167.776 321.762 165.788C319.923 163.8 315.935 164.409 312.718 166.397C309.5 168.385 311.798 169.925 309.661 170.683C307.524 171.442 305.363 170.224 303.375 170.384C301.387 170.545 299.549 175.59 295.251 175.441C290.953 175.291 288.206 169.155 284.989 164.788C281.771 160.421 275.187 157.663 273.038 152.297C270.889 146.93 275.026 138.668 274.106 132.382C273.187 126.096 269.05 127.475 268.292 123.959C267.533 120.442 268.901 122.12 269.969 118.742C271.038 115.363 268.751 113.536 270.889 107.71C273.026 101.884 276.864 98.9762 275.945 96.3792C275.026 93.7821 272.118 89.4843 271.969 86.4275C271.82 83.3708 274.876 83.5087 280.737 79.2453C286.598 74.982 288.091 75.2693 292.527 76.7976C295.72 77.9773 299.001 78.8996 302.341 79.5556C304.938 80.0153 308.466 86.7608 309.535 86.4505C310.603 86.1402 310.764 84.1522 311.224 81.2449C311.518 79.9802 312.182 78.832 313.131 77.9468C330.427 105.68 339.051 137.944 337.898 170.608C336.745 203.272 325.869 234.849 306.662 261.294C322.244 237.495 325.278 205.652 325.738 200.722Z" fill="#455A64"/>
</g>
<path opacity="0.1" d="M300.996 268.579C283.495 290.039 260.849 306.721 235.165 317.072C209.481 327.423 181.596 331.106 154.105 327.778C126.615 324.45 100.413 314.22 77.9412 298.04C55.469 281.86 37.4567 260.256 25.5817 235.241C13.7067 210.225 8.35511 182.611 10.0254 154.97C11.6957 127.33 20.3334 100.561 35.1344 77.1576C49.9353 53.7539 70.418 34.4764 94.675 21.12C118.932 7.76368 146.175 0.762963 173.866 0.76978C178.37 0.76978 182.829 0.949813 187.242 1.30988C188.46 1.40181 189.678 1.51673 190.896 1.65463C167.707 4.18211 145.424 12.0704 125.809 24.6957C106.195 37.321 89.7867 54.3369 77.8831 74.3976C65.9795 94.4583 58.9067 117.014 57.2242 140.279C55.5416 163.545 59.2955 186.883 68.1889 208.448C77.0823 230.013 90.8713 249.212 108.465 264.529C126.059 279.845 146.975 290.857 169.56 296.695C192.144 302.532 215.777 303.035 238.589 298.164C261.401 293.292 282.767 283.179 300.996 268.625V268.579Z" fill="black"/>
<path opacity="0.3" d="M337.965 164.823C338.02 199.489 327.041 233.272 306.616 261.282C291.215 282.416 271.014 299.588 247.676 311.385C267.992 299.751 285.615 283.949 299.388 265.017C316.611 241.32 327.217 213.466 330.116 184.314C333.015 155.163 328.102 125.766 315.882 99.1407C303.662 72.5159 284.576 49.6235 260.583 32.8143C236.591 16.0051 208.556 5.88506 179.359 3.49339C174.935 3.13715 170.441 2.95329 165.914 2.95329C152.561 2.94176 139.256 4.55084 126.291 7.74524C141.72 3.09235 157.751 0.741916 173.866 0.7699C178.371 0.7699 182.829 0.949933 187.242 1.31C209.749 3.13724 231.637 9.59434 251.532 20.2765C271.427 30.9587 288.901 45.6356 302.858 63.3871C306.537 68.0477 309.955 72.9084 313.097 77.9469C329.396 103.989 338.015 134.101 337.965 164.823Z" fill="white"/>
<path d="M22.5584 87.3355L21.5586 86.7609C22.2136 85.6118 22.8801 84.4626 23.5696 83.3135L24.5579 83.911C23.8799 85.0602 23.2134 86.1978 22.5584 87.3355Z" fill="#455A64"/>
<path d="M164.673 332.943C73.8904 332.943 0 259.064 0 168.27C0.00415811 141.876 6.33679 115.868 18.4669 92.4261L19.4896 92.9547C7.42749 116.225 1.12234 142.048 1.10319 168.259C1.10319 258.421 74.465 331.783 164.627 331.783C254.79 331.783 328.152 258.421 328.152 168.259C328.152 78.0962 254.836 4.7459 164.673 4.7459C137.391 4.70562 110.533 11.5096 86.5606 24.5349C62.5878 37.5602 42.2652 56.3908 27.4532 79.3028L26.4879 78.6823C41.4022 55.607 61.8672 36.6421 86.009 23.5242C110.151 10.4063 137.198 3.55469 164.673 3.59675C255.456 3.59675 329.347 77.4756 329.347 168.27C329.347 259.064 255.456 332.943 164.673 332.943Z" fill="#455A64"/>
<path d="M164.672 332.944C115.259 332.944 75.1191 259.065 75.1191 168.27C75.1191 77.4758 115.259 3.59692 164.672 3.59692C214.086 3.59692 254.226 77.4758 254.226 168.27C254.226 259.065 214.086 332.944 164.672 332.944ZM164.672 4.74607C115.925 4.74607 76.2683 78.1078 76.2683 168.27C76.2683 258.433 115.925 331.794 164.672 331.794C213.419 331.794 253.077 258.433 253.077 168.27C253.077 78.1078 213.419 4.74607 164.672 4.74607Z" fill="#455A64"/>
<path d="M161.225 89.0477C144.033 89.0586 126.86 87.9069 109.824 85.6003C64.2943 79.4178 36.278 66.9266 35.9678 66.8002L36.4389 65.7544C36.7147 65.8808 64.6506 78.3032 109.985 84.4741C151.86 90.2198 217.591 91.5299 292.906 65.7314L293.274 66.8806C250.782 81.5033 206.163 88.9935 161.225 89.0477Z" fill="#455A64"/>
<path d="M36.393 270.82L35.9678 269.671C111.513 243.792 177.451 245.171 219.464 250.882C264.994 257.076 293.01 269.568 293.32 269.694L292.849 270.74C292.573 270.613 264.649 258.191 219.303 252.02C177.428 246.355 111.697 244.987 36.393 270.82Z" fill="#455A64"/>
<path d="M165.248 4.17151H164.099V332.357H165.248V4.17151Z" fill="#455A64"/>
<path d="M328.772 167.696H293.137V168.845H328.772V167.696Z" fill="#455A64"/>
<path d="M287.092 167.696H280.186V168.845H287.092V167.696Z" fill="#455A64"/>
<path d="M273.739 167.696H0.574219V168.845H273.739V167.696Z" fill="#455A64"/>
<path d="M23 289.428C121.98 288.991 233.012 288.991 332 289.428C233.012 289.873 121.98 289.873 23 289.428Z" fill="#263238"/>
<g opacity="0.6">
<path d="M104.841 66.8334C104.841 66.8334 61.6296 75.6411 57.3391 68.7628C55.3241 65.5568 64.7862 60.7943 64.7862 60.7943C64.7862 60.7943 58.496 64.9902 61.3691 66.647C66.7323 69.7239 96.2831 62.7309 96.2831 62.7309L104.841 66.8334Z" fill="#EBEBEB"/>
<path d="M79.1211 71.7752L85.5798 70.8858C86.6524 70.7352 87.7327 70.5989 88.8054 70.4411C89.878 70.2833 90.9506 70.1399 92.0232 69.9821C93.0959 69.8243 94.1685 69.6665 95.2334 69.4872C96.2984 69.3079 97.371 69.1286 98.4437 68.9636C100.581 68.5907 102.703 68.189 104.841 67.7587C102.789 68.4576 100.694 69.0397 98.5662 69.5016C97.5013 69.7311 96.4363 69.9534 95.3637 70.1471C94.2911 70.3407 93.2184 70.5057 92.1381 70.6778C91.0579 70.85 89.9852 70.9791 88.8973 71.101L87.273 71.2803C86.7367 71.3377 86.1928 71.3879 85.6488 71.4309C83.4805 71.6031 81.274 71.7752 79.1211 71.7752Z" fill="#EBEBEB"/>
<path d="M62.8095 63.5127C62.7253 63.6265 62.651 63.7464 62.5873 63.8713C62.5241 63.9927 62.4753 64.1201 62.4417 64.2514C62.4058 64.3753 62.3877 64.5032 62.3881 64.6316C62.3941 64.7509 62.4254 64.8679 62.48 64.9759C62.5976 65.1886 62.7858 65.3597 63.0164 65.4636C63.2581 65.5851 63.5156 65.6767 63.7825 65.7361C64.3431 65.8613 64.9153 65.9357 65.4911 65.9585C66.0733 66.0015 66.6556 66.0087 67.2456 66.0015C67.8355 65.9943 68.4255 66.0015 69.0154 66.0015L70.7929 65.937C71.9804 65.8868 73.168 65.815 74.3785 65.8079C73.2179 66.1033 72.0381 66.3285 70.8465 66.4821C70.5477 66.5251 70.2566 66.561 69.9501 66.5896L69.0537 66.6685C68.4561 66.7116 67.8508 66.7331 67.2456 66.7474C66.0171 66.778 64.7913 66.6255 63.614 66.2956C63.3054 66.2001 63.0136 66.0623 62.7482 65.8867C62.4631 65.7035 62.2483 65.4396 62.1353 65.1337C62.0471 64.8275 62.0883 64.5013 62.2502 64.2228C62.3767 63.9495 62.568 63.7066 62.8095 63.5127Z" fill="#EBEBEB"/>
</g>
<path d="M111.452 68.7627C111.123 68.4113 106.579 65.4419 106.242 65.2196L107.008 65.0977C107.008 65.0977 111.153 68.3969 111.452 68.7627Z" fill="#C53F3F"/>
<path opacity="0.5" d="M111.452 68.7627C111.123 68.4113 106.579 65.4419 106.242 65.2196L107.008 65.0977C107.008 65.0977 111.153 68.3969 111.452 68.7627Z" fill="white"/>
<path d="M111.469 68.7914C111.469 68.8703 111.124 68.9349 110.779 68.9779C110.457 69.028 110.128 69.028 109.806 68.9779C109.707 68.9134 106.427 67.3785 104.443 66.4389L104.366 66.403L104.083 66.2668L103.263 65.8866L102.941 65.736L106.313 65.1909C106.504 65.32 108.036 66.317 109.377 67.235L109.515 67.3283L109.89 67.5793C110.45 67.9384 110.989 68.3238 111.507 68.7341L111.469 68.7914Z" fill="#C53F3F"/>
<g opacity="0.1">
<path d="M111.469 68.7914C111.469 68.8703 111.124 68.9348 110.779 68.9778C110.457 69.0279 110.129 69.0279 109.806 68.9778C109.707 68.9133 106.343 67.3425 104.344 66.403C104.673 66.5536 108.987 68.4973 109.86 67.5721C110.419 67.9312 110.959 68.3166 111.477 68.7268L111.469 68.7914Z" fill="black"/>
</g>
<path d="M155.906 72.2556C155.906 72.6788 153.416 72.8151 153.079 72.729C152.742 72.643 125.65 62.6877 125.65 62.6877L135.61 59.0011L135.894 59.1876L136.024 59.2665C137.855 60.4571 143.333 64.0146 148.122 67.1561L148.405 67.3426L148.781 67.5864C152.098 69.7166 154.979 71.6101 155.906 72.2556Z" fill="#C53F3F"/>
<path d="M155.906 72.2558C153.477 70.5631 137.679 60.3137 135.61 58.9725L136.867 58.4991C136.867 58.4991 155.255 71.6102 155.829 72.1267C155.871 72.159 155.899 72.2052 155.906 72.2558Z" fill="#C53F3F"/>
<path opacity="0.5" d="M155.906 72.2558C153.477 70.5631 137.679 60.3137 135.61 58.9725L136.867 58.4991C136.867 58.4991 155.255 71.6102 155.829 72.1267C155.871 72.159 155.899 72.2052 155.906 72.2558Z" fill="white"/>
<g opacity="0.5">
<path opacity="0.1" d="M155.904 72.2558C155.904 72.6789 153.414 72.8152 153.077 72.7291C152.74 72.6431 125.648 62.6878 125.648 62.6878L135.609 59.0012C135.609 59.0012 133.141 61.6335 138.987 65.693C142.964 68.4544 147.208 69.0282 148.779 67.5722C152.096 69.7167 154.977 71.6103 155.904 72.2558Z" fill="black"/>
</g>
<path d="M133.372 65.9297C132.606 66.2812 131.763 66.5537 131.702 65.8293C131.702 65.5352 131.924 65.2196 133.166 64.6602C133.457 64.5311 134.162 64.237 134.368 64.8395C134.575 65.442 133.633 65.8006 133.372 65.9297Z" fill="#C53F3F"/>
<path opacity="0.1" d="M133.372 65.9297C132.606 66.2812 131.763 66.5537 131.702 65.8293C131.702 65.5352 131.924 65.2196 133.166 64.6602C133.457 64.5311 134.162 64.237 134.368 64.8395C134.575 65.442 133.633 65.8006 133.372 65.9297Z" fill="black"/>
<path d="M139.618 68.3325C138.851 68.6839 138.016 68.9565 137.955 68.2392C137.955 67.938 138.17 67.6224 139.411 67.063C139.702 66.9339 140.407 66.647 140.621 67.2423C140.836 67.8376 139.909 68.189 139.618 68.3325Z" fill="#C53F3F"/>
<path opacity="0.1" d="M139.618 68.3325C138.851 68.6839 138.016 68.9565 137.955 68.2392C137.955 67.938 138.17 67.6224 139.411 67.063C139.702 66.9339 140.407 66.647 140.621 67.2423C140.836 67.8376 139.909 68.189 139.618 68.3325Z" fill="black"/>
<path d="M145.891 70.7425C145.125 71.0868 144.29 71.3665 144.229 70.6421C144.229 70.3408 144.451 70.0253 145.684 69.473C145.975 69.3367 146.688 69.0498 146.895 69.6523C147.102 70.2548 146.182 70.6062 145.891 70.7425Z" fill="#C53F3F"/>
<path opacity="0.1" d="M145.891 70.7425C145.125 71.0868 144.29 71.3665 144.229 70.6421C144.229 70.3408 144.451 70.0253 145.684 69.473C145.975 69.3367 146.688 69.0498 146.895 69.6523C147.102 70.2548 146.182 70.6062 145.891 70.7425Z" fill="black"/>
<path d="M143.846 64.4235C143.08 65.6787 141.371 66.1377 140.283 66.5394C137.395 67.6224 135.303 68.2249 134.269 65.7719C134.146 65.4876 134.069 65.1879 134.039 64.8825C133.871 63.0321 135.916 62.114 136.958 61.5976C138.215 60.9808 139.103 60.5791 139.762 60.3137C140.404 60.0214 141.103 59.8531 141.816 59.8188C142.406 59.8188 143.723 59.9408 144.114 62.2072C144.308 62.9524 144.213 63.7379 143.846 64.4235Z" fill="#C53F3F"/>
<path d="M143.878 62.6591C143.878 64.0433 142.959 65.1551 141.825 65.1551C140.691 65.1551 139.764 64.0433 139.764 62.6591C139.764 61.2748 140.683 60.1631 141.825 60.1631C142.966 60.1631 143.878 61.282 143.878 62.6591Z" fill="#263238"/>
<path d="M143.639 62.6591C143.639 63.8784 142.827 64.8682 141.823 64.8682C140.82 64.8682 140 63.8784 140 62.6591C140 61.4398 140.82 60.4572 141.823 60.4572C142.827 60.4572 143.639 61.4469 143.639 62.6591Z" fill="#455A64"/>
<path d="M100.773 61.9992L100.298 62.1641L99.2249 62.5299C98.2672 62.1354 96.9264 61.6047 95.5167 61.0309C91.9157 59.5964 87.6635 57.8822 86.8438 57.624H86.9433H87.0429L87.1655 57.6599H87.2345L87.518 57.7388L87.8091 57.832L88.6289 58.0831L88.9047 58.1691L89.1652 58.2552L89.3108 58.2982L89.7552 58.4345L90.0463 58.5277L93.8771 59.7327L94.2372 59.8403L95.6622 60.2921L98.114 61.0668L98.4587 61.1815L99.5237 61.5186L99.7995 61.6047L99.9221 61.6477H99.9834L100.773 61.9992Z" fill="#C53F3F"/>
<path opacity="0.5" d="M100.773 61.9992L100.298 62.1641L99.2249 62.5299C98.2672 62.1354 96.9264 61.6047 95.5167 61.0309C91.9157 59.5964 87.6635 57.8822 86.8438 57.624H86.9433H87.0429L87.1655 57.6599H87.2345L87.518 57.7388L87.8091 57.832L88.6289 58.0831L88.9047 58.1691L89.1652 58.2552L89.3108 58.2982L89.7552 58.4345L90.0463 58.5277L93.8771 59.7327L94.2372 59.8403L95.6622 60.2921L98.114 61.0668L98.4587 61.1815L99.5237 61.5186L99.7995 61.6047L99.9221 61.6477H99.9834L100.773 61.9992Z" fill="white"/>
<path d="M99.2256 62.5299L96.3525 63.5125C96.3525 63.5125 89.9321 60.7225 86.1013 58.9724H86.063H86.0094L84.9061 58.4704C84.3476 58.2445 83.8139 57.9682 83.3125 57.6456C83.4198 57.4447 85.8025 57.3945 86.7602 57.6456H86.8215C87.5877 57.8966 91.61 59.4888 95.1267 60.9018L95.211 60.9377L95.4944 61.0524C96.9425 61.6047 98.2679 62.1355 99.2256 62.5299Z" fill="#C53F3F"/>
<g opacity="0.1">
<path d="M99.2259 62.5299L96.3528 63.5125C96.3528 63.5125 89.9324 60.7225 86.1016 58.9724C86.7375 59.2234 93.2345 61.9059 94.8358 61.533C94.9846 61.5077 95.1245 61.4487 95.2433 61.3612C95.3622 61.2737 95.4564 61.1603 95.5177 61.0309C96.9427 61.6047 98.2682 62.1354 99.2259 62.5299Z" fill="black"/>
</g>
<path d="M106.618 58.6927L99.6455 61.8342C99.6455 61.8342 99.7145 56.2326 99.7681 52.2089C99.7681 52.0726 99.7681 51.9364 99.7681 51.8001C99.7681 51.6638 99.7681 51.5777 99.7681 51.4702C99.7681 50.0931 99.7681 48.9814 99.8064 48.4793C99.8064 46.8583 100.021 46.5284 100.473 46.7938C101.603 47.5809 102.645 48.4724 103.584 49.4547C104.089 50.0572 105.2 53.7581 105.928 56.2613C105.924 56.2827 105.924 56.3045 105.928 56.3259C105.966 56.4765 106.012 56.6128 106.051 56.7562C106.403 57.8894 106.618 58.6927 106.618 58.6927Z" fill="#C53F3F"/>
<g opacity="0.1">
<path d="M106.62 58.6928L99.6475 61.8343C99.6475 61.8343 99.7164 56.2327 99.77 52.209C100.797 54.3607 102.835 57.2799 106.083 56.7563C106.405 57.8895 106.62 58.6928 106.62 58.6928Z" fill="black"/>
</g>
<path d="M94.7742 65.2555C94.054 63.5772 97.0726 62.0494 100.566 60.5934C104.06 59.1375 138.108 45.0581 143.081 43.8029C148.053 42.5477 153.807 44.2619 154.757 46.9086C156.22 50.8749 150.068 54.2029 127.941 62.781C125.045 63.8999 112.089 66.8119 104.811 66.8334C97.0497 66.8549 95.1266 66.0803 94.7742 65.2555Z" fill="#C53F3F"/>
<path opacity="0.5" d="M94.7742 65.2555C94.054 63.5772 97.0726 62.0494 100.566 60.5934C104.06 59.1375 138.108 45.0581 143.081 43.8029C148.053 42.5477 153.807 44.2619 154.757 46.9086C156.22 50.8749 150.068 54.2029 127.941 62.781C125.045 63.8999 112.089 66.8119 104.811 66.8334C97.0497 66.8549 95.1266 66.0803 94.7742 65.2555Z" fill="white"/>
<path opacity="0.5" d="M94.7742 65.2555C94.054 63.5772 97.0726 62.0494 100.566 60.5934C104.06 59.1375 138.108 45.0581 143.081 43.8029C148.053 42.5477 153.807 44.2619 154.757 46.9086C156.22 50.8749 150.068 54.2029 127.941 62.781C125.045 63.8999 112.089 66.8119 104.811 66.8334C97.0497 66.8549 95.1266 66.0803 94.7742 65.2555Z" fill="white"/>
<path opacity="0.1" d="M128.01 62.7811C125.114 63.8999 112.158 66.8119 104.88 66.8334C97.0878 66.8334 95.1647 66.1162 94.8123 65.2555C94.4598 64.3948 95.0881 63.5413 96.2986 62.7308C96.2923 62.9023 96.3236 63.0732 96.3906 63.2329C96.7124 63.9501 98.4592 64.6674 105.523 64.6674C112.127 64.6674 121.613 59.6467 124.263 58.6211C144.314 50.839 152.144 50.1864 150.819 46.5858C150.244 45.0223 147.815 43.8101 144.942 43.4802C149.386 42.9853 153.945 44.5919 154.795 46.9158C156.22 50.8749 150.068 54.2029 128.01 62.7811Z" fill="black"/>
<path d="M105.584 59.7184L106.373 59.3956V60.4787L105.584 60.7942V59.7184Z" fill="#455A64"/>
<path d="M107.018 59.1374L107.853 58.7931V59.8761L107.018 60.2132V59.1374Z" fill="#455A64"/>
<path d="M108.503 58.535L109.338 58.1979V59.2737L108.503 59.6108V58.535Z" fill="#455A64"/>
<path d="M109.982 57.9326L110.818 57.5955V58.6713L109.982 59.0156V57.9326Z" fill="#455A64"/>
<path d="M111.469 57.33L112.304 56.9929V58.0759L111.469 58.413V57.33Z" fill="#455A64"/>
<path d="M112.947 56.7347L113.79 56.3904V57.4734L112.947 57.8105V56.7347Z" fill="#455A64"/>
<path d="M114.434 56.1323L115.269 55.7952V56.871L114.434 57.2081V56.1323Z" fill="#455A64"/>
<path d="M115.92 55.5297L116.755 55.1926V56.2685L115.92 56.6056V55.5297Z" fill="#455A64"/>
<path d="M117.398 54.9273L118.234 54.5902V55.6661L117.398 56.0103V54.9273Z" fill="#455A64"/>
<path d="M118.885 54.3248L119.72 53.9877V55.0707L118.885 55.4078V54.3248Z" fill="#455A64"/>
<path d="M120.363 53.7294L121.206 53.3851V54.4682L120.363 54.8053V53.7294Z" fill="#455A64"/>
<path d="M121.851 53.1271L122.686 52.79V53.8659L121.851 54.203V53.1271Z" fill="#455A64"/>
<path d="M123.336 52.5245L124.171 52.1874V53.2632L123.336 53.6003V52.5245Z" fill="#455A64"/>
<path d="M124.815 51.9221L125.651 51.585V52.6608L124.815 53.0051V51.9221Z" fill="#455A64"/>
<path d="M126.301 51.3195L127.136 50.9824V52.0583L126.301 52.4026V51.3195Z" fill="#455A64"/>
<path d="M127.78 50.7243L128.615 50.38V51.463L127.78 51.8001V50.7243Z" fill="#455A64"/>
<path d="M129.267 50.1218L130.102 49.7847V50.8605L129.267 51.1976V50.1218Z" fill="#455A64"/>
<path d="M130.745 49.5194L131.588 49.1823V50.2581L130.745 50.5952V49.5194Z" fill="#455A64"/>
<path d="M132.231 48.9168L133.067 48.5797V49.6556L132.231 49.9998V48.9168Z" fill="#455A64"/>
<path d="M133.718 48.3144L134.553 47.9773V49.0532L133.718 49.3974V48.3144Z" fill="#455A64"/>
<path d="M135.197 47.719L136.032 47.3748V48.4578L135.197 48.7949V47.719Z" fill="#455A64"/>
<path d="M137.518 46.7794V47.8553L136.683 48.1924V47.1165L137.518 46.7794Z" fill="#455A64"/>
<path d="M139.005 46.177V47.2529L138.162 47.59V46.5141L139.005 46.177Z" fill="#455A64"/>
<path d="M140.484 45.5745V46.6503L139.648 46.9946V45.9116L140.484 45.5745Z" fill="#455A64"/>
<path d="M141.969 44.9719V46.0549L141.134 46.3921V45.309L141.969 44.9719Z" fill="#455A64"/>
<path d="M145.846 44.5202C146.297 44.1837 146.819 43.9394 147.378 43.803V44.5202H145.846Z" fill="#455A64"/>
<path d="M149.224 43.681V44.6708L148.044 44.599V43.7312C148.435 43.6821 148.83 43.6653 149.224 43.681Z" fill="#455A64"/>
<path d="M152.957 45.0797C152.644 45.0643 152.332 45.0332 152.022 44.9864C151.716 44.9864 151.424 44.9075 151.133 44.8788C150.704 44.8143 150.283 44.7713 149.869 44.7354V43.7456C150.378 43.8096 150.875 43.9374 151.348 44.1257C151.643 44.2389 151.928 44.3757 152.198 44.5346C152.336 44.6099 152.467 44.6963 152.589 44.7928C152.719 44.886 152.842 44.9793 152.957 45.0797Z" fill="#455A64"/>
<path d="M126.301 53.8442L116.471 58.2768C116.471 58.2768 100.842 50.4302 89.6558 44.6995C83.6645 41.644 79.0982 39.2628 79.1748 39.1767C79.3587 38.9329 82.3697 38.9687 83.5649 39.1194C83.6787 39.1298 83.7915 39.149 83.902 39.1767C84.4076 39.3058 102.091 45.431 114.472 49.7345L126.301 53.8442Z" fill="#C53F3F"/>
<g opacity="0.1">
<path d="M126.302 53.8442L116.472 58.2768C116.472 58.2768 100.842 50.4302 89.6562 44.6995C90.5297 45.1155 110.634 54.5973 113.254 53.1772C114.25 52.6393 114.51 51.255 114.442 49.7201L126.302 53.8442Z" fill="black"/>
</g>
<path d="M127.734 53.2634L124.815 54.5616C117.345 51.6281 86.277 40.1308 83.6798 39.1697H83.5955H83.5342C83.648 39.1801 83.7608 39.1993 83.8713 39.2271C84.6298 39.3849 127.734 53.2634 127.734 53.2634Z" fill="#C53F3F"/>
<path opacity="0.5" d="M127.734 53.2634L124.815 54.5616C117.345 51.6281 86.277 40.1308 83.6798 39.1697H83.5955H83.5342C83.648 39.1801 83.7608 39.1993 83.8713 39.2271C84.6298 39.3849 127.734 53.2634 127.734 53.2634Z" fill="white"/>
<path d="M106.68 53.4784C105.714 53.9159 104.672 54.2602 104.596 53.3565C104.596 52.9835 104.872 52.5891 106.419 51.922C106.779 51.7571 107.668 51.3913 107.951 52.1444C108.235 52.8975 107.04 53.3135 106.68 53.4784Z" fill="#C53F3F"/>
<path opacity="0.1" d="M106.68 53.4784C105.714 53.9159 104.672 54.2602 104.596 53.3565C104.596 52.9835 104.872 52.5891 106.419 51.922C106.779 51.7571 107.668 51.3913 107.951 52.1444C108.235 52.8975 107.04 53.3135 106.68 53.4784Z" fill="black"/>
<path d="M98.3593 49.5408C97.4016 49.9783 96.352 50.3154 96.2754 49.4117C96.2754 49.0459 96.5512 48.6442 98.0989 47.9772C98.4666 47.8194 99.3477 47.4536 99.6312 48.2067C99.9147 48.9598 98.7194 49.383 98.3593 49.5408Z" fill="#C53F3F"/>
<path opacity="0.1" d="M98.3593 49.5408C97.4016 49.9783 96.352 50.3154 96.2754 49.4117C96.2754 49.0459 96.5512 48.6442 98.0989 47.9772C98.4666 47.8194 99.3477 47.4536 99.6312 48.2067C99.9147 48.9598 98.7194 49.383 98.3593 49.5408Z" fill="black"/>
<path d="M90.0165 45.5674C89.1201 45.9691 88.1471 46.2846 88.0781 45.4455C88.0781 45.1012 88.331 44.7282 89.7713 44.0827C90.1084 43.9321 90.9359 43.595 91.1811 44.2979C91.4262 45.0008 90.3536 45.4096 90.0165 45.5674Z" fill="#C53F3F"/>
<path opacity="0.1" d="M90.0165 45.5674C89.1201 45.9691 88.1471 46.2846 88.0781 45.4455C88.0781 45.1012 88.331 44.7282 89.7713 44.0827C90.1084 43.9321 90.9359 43.595 91.1811 44.2979C91.4262 45.0008 90.3536 45.4096 90.0165 45.5674Z" fill="black"/>
<path d="M119.092 52.5891C118.326 53.8514 116.617 54.3033 115.529 54.7408C112.649 55.8166 110.549 56.4263 109.523 53.9733C109.398 53.6896 109.321 53.3896 109.293 53.084C109.117 51.2335 111.17 50.3083 112.204 49.7918C113.453 49.175 114.342 48.7734 115.008 48.5152C115.647 48.2143 116.347 48.0456 117.062 48.0203C117.644 48.0203 118.962 48.135 119.36 50.4015C119.551 51.1374 119.456 51.9127 119.092 52.5891Z" fill="#C53F3F"/>
<path d="M117.069 53.3278C118.203 53.3278 119.122 52.2103 119.122 50.8318C119.122 49.4533 118.203 48.3358 117.069 48.3358C115.935 48.3358 115.016 49.4533 115.016 50.8318C115.016 52.2103 115.935 53.3278 117.069 53.3278Z" fill="#263238"/>
<path d="M117.07 53.0338C118.073 53.0338 118.885 52.048 118.885 50.8319C118.885 49.6158 118.073 48.63 117.07 48.63C116.067 48.63 115.254 49.6158 115.254 50.8319C115.254 52.048 116.067 53.0338 117.07 53.0338Z" fill="#455A64"/>
</svg>
