<svg width="20" height="20" viewBox="0 0 20 20" fill="none" xmlns="http://www.w3.org/2000/svg">
<path fill-rule="evenodd" clip-rule="evenodd" d="M10 19C14.9705 19 19 14.9705 19 10C19 5.0295 14.9705 1 10 1C5.0295 1 1 5.0295 1 10C1 14.9705 5.0295 19 10 19ZM10 20C15.523 20 20 15.523 20 10C20 4.477 15.523 0 10 0C4.477 0 0 4.477 0 10C0 15.523 4.477 20 10 20Z" fill="#6C9104"/>
<path fill-rule="evenodd" clip-rule="evenodd" d="M15.3343 6.1295C15.4327 6.21836 15.4918 6.34265 15.4985 6.47504C15.5053 6.60743 15.4592 6.73709 15.3703 6.8355L8.69234 14.216L4.65434 10.3615C4.56367 10.2688 4.51254 10.1446 4.51173 10.0149C4.51092 9.88529 4.5605 9.7604 4.65001 9.66661C4.73951 9.57282 4.86195 9.51746 4.99149 9.51222C5.12103 9.50698 5.24754 9.55225 5.34434 9.6385L8.63934 12.7835L14.6288 6.165C14.6729 6.11629 14.7262 6.07674 14.7855 6.04862C14.8449 6.0205 14.9092 6.00435 14.9748 6.0011C15.0405 5.99785 15.1061 6.00756 15.1679 6.02968C15.2298 6.05179 15.2867 6.08588 15.3353 6.13" fill="#6C9104"/>
</svg>
