<svg width="145" height="20" viewBox="0 0 145 20" fill="none" xmlns="http://www.w3.org/2000/svg">
<path d="M0.307617 19L2.05078 0.953125H8.17236L9.88477 19H6.47021L6.21387 16.0879H4.04004L3.81445 19H0.307617ZM4.29639 13.2065H5.93701L5.14746 4.0293H4.9834L4.29639 13.2065ZM10.9922 19V0.953125H18.2109V4.47021H14.6221V7.34131H18.0264V10.8174H14.6221V19H10.9922ZM19.3799 19V0.953125H24.917C25.8398 0.953125 26.5371 1.16504 27.0088 1.58887C27.4805 2.00586 27.7949 2.59375 27.9521 3.35254C28.1162 4.10449 28.1982 4.98975 28.1982 6.0083C28.1982 6.99268 28.0718 7.77881 27.8188 8.3667C27.5728 8.95459 27.1045 9.36133 26.4141 9.58691C26.9814 9.70312 27.3779 9.98682 27.6035 10.438C27.8359 10.8823 27.9521 11.46 27.9521 12.1709V19H24.394V11.9351C24.394 11.4087 24.2847 11.084 24.0659 10.9609C23.854 10.8311 23.5088 10.7661 23.0303 10.7661V19H19.3799ZM23.0508 7.63867H23.9224C24.4214 7.63867 24.6709 7.09521 24.6709 6.0083C24.6709 5.3042 24.6162 4.84277 24.5068 4.62402C24.3975 4.40527 24.1924 4.2959 23.8916 4.2959H23.0508V7.63867ZM33.6943 19.1641C32.252 19.1641 31.1479 18.73 30.3823 17.8618C29.6235 16.9868 29.2441 15.7256 29.2441 14.0781V5.50586C29.2441 3.96094 29.6201 2.78857 30.3721 1.98877C31.1309 1.18896 32.2383 0.789062 33.6943 0.789062C35.1504 0.789062 36.2544 1.18896 37.0063 1.98877C37.7651 2.78857 38.1445 3.96094 38.1445 5.50586V14.0781C38.1445 15.7256 37.7617 16.9868 36.9961 17.8618C36.2373 18.73 35.1367 19.1641 33.6943 19.1641ZM33.7251 15.8418C34.272 15.8418 34.5454 15.312 34.5454 14.2524V5.44434C34.5454 4.55566 34.2788 4.11133 33.7456 4.11133C33.144 4.11133 32.8433 4.56592 32.8433 5.4751V14.2729C32.8433 14.8335 32.9116 15.2368 33.0483 15.4829C33.1851 15.7222 33.4106 15.8418 33.7251 15.8418ZM99.104 19V4.41895H96.9609V0.953125H104.856V4.41895H102.713V19H99.104ZM110.168 19.1641C108.726 19.1641 107.622 18.73 106.856 17.8618C106.097 16.9868 105.718 15.7256 105.718 14.0781V5.50586C105.718 3.96094 106.094 2.78857 106.846 1.98877C107.604 1.18896 108.712 0.789062 110.168 0.789062C111.624 0.789062 112.728 1.18896 113.48 1.98877C114.239 2.78857 114.618 3.96094 114.618 5.50586V14.0781C114.618 15.7256 114.235 16.9868 113.47 17.8618C112.711 18.73 111.61 19.1641 110.168 19.1641ZM110.199 15.8418C110.746 15.8418 111.019 15.312 111.019 14.2524V5.44434C111.019 4.55566 110.752 4.11133 110.219 4.11133C109.618 4.11133 109.317 4.56592 109.317 5.4751V14.2729C109.317 14.8335 109.385 15.2368 109.522 15.4829C109.659 15.7222 109.884 15.8418 110.199 15.8418ZM120.248 19.1641C118.744 19.1641 117.636 18.7437 116.925 17.9028C116.214 17.0552 115.859 15.811 115.859 14.1704V0.953125H119.366V14.0269C119.366 14.3276 119.383 14.6182 119.417 14.8984C119.451 15.1719 119.53 15.3975 119.653 15.5752C119.776 15.7529 119.974 15.8418 120.248 15.8418C120.528 15.8418 120.729 15.7563 120.853 15.5854C120.976 15.4077 121.051 15.1787 121.078 14.8984C121.112 14.6182 121.129 14.3276 121.129 14.0269V0.953125H124.636V14.1704C124.636 15.811 124.281 17.0552 123.57 17.9028C122.859 18.7437 121.751 19.1641 120.248 19.1641ZM130.225 19.1641C128.919 19.1641 127.866 18.7573 127.066 17.9438C126.273 17.1304 125.877 15.9922 125.877 14.5293V6.20312C125.877 4.45312 126.222 3.11328 126.913 2.18359C127.61 1.25391 128.741 0.789062 130.307 0.789062C131.161 0.789062 131.92 0.946289 132.583 1.26074C133.253 1.5752 133.779 2.04688 134.162 2.67578C134.545 3.29785 134.736 4.08398 134.736 5.03418V8.15137H131.147V5.48535C131.147 4.94531 131.079 4.58301 130.942 4.39844C130.806 4.20703 130.594 4.11133 130.307 4.11133C129.972 4.11133 129.746 4.23438 129.63 4.48047C129.514 4.71973 129.456 5.04102 129.456 5.44434V14.478C129.456 14.9771 129.527 15.3291 129.671 15.5342C129.821 15.7393 130.033 15.8418 130.307 15.8418C130.614 15.8418 130.83 15.7153 130.953 15.4624C131.083 15.2095 131.147 14.8813 131.147 14.478V11.2275H134.777V14.6421C134.777 16.228 134.377 17.3799 133.578 18.0977C132.778 18.8086 131.66 19.1641 130.225 19.1641ZM135.987 19V0.953125H139.576V7.40283H141.278V0.953125H144.867V19H141.278V10.8174H139.576V19H135.987Z" fill="#D9D9D9"/>
<path d="M39.6006 19V0.953125H46.8193V4.47021H43.2305V7.34131H46.6348V10.8174H43.2305V19H39.6006ZM47.9883 19V0.953125H53.5254C54.4482 0.953125 55.1455 1.16504 55.6172 1.58887C56.0889 2.00586 56.4033 2.59375 56.5605 3.35254C56.7246 4.10449 56.8066 4.98975 56.8066 6.0083C56.8066 6.99268 56.6802 7.77881 56.4272 8.3667C56.1812 8.95459 55.7129 9.36133 55.0225 9.58691C55.5898 9.70312 55.9863 9.98682 56.2119 10.438C56.4443 10.8823 56.5605 11.46 56.5605 12.1709V19H53.0024V11.9351C53.0024 11.4087 52.8931 11.084 52.6743 10.9609C52.4624 10.8311 52.1172 10.7661 51.6387 10.7661V19H47.9883ZM51.6592 7.63867H52.5308C53.0298 7.63867 53.2793 7.09521 53.2793 6.0083C53.2793 5.3042 53.2246 4.84277 53.1152 4.62402C53.0059 4.40527 52.8008 4.2959 52.5 4.2959H51.6592V7.63867ZM57.9961 19V0.953125H65.2148V4.43945H61.667V7.95654H65.0713V11.3506H61.667V15.4829H65.4507V19H57.9961ZM66.6504 19V0.953125H70.3623L72.0234 9.59717V0.953125H75.5098V19H71.9824L70.1777 9.97656V19H66.6504ZM81.3135 19.1641C80.0078 19.1641 78.9551 18.7573 78.1553 17.9438C77.3623 17.1304 76.9658 15.9922 76.9658 14.5293V6.20312C76.9658 4.45312 77.311 3.11328 78.0015 2.18359C78.6987 1.25391 79.8301 0.789062 81.3955 0.789062C82.25 0.789062 83.0088 0.946289 83.6719 1.26074C84.3418 1.5752 84.8682 2.04688 85.251 2.67578C85.6338 3.29785 85.8252 4.08398 85.8252 5.03418V8.15137H82.2363V5.48535C82.2363 4.94531 82.168 4.58301 82.0312 4.39844C81.8945 4.20703 81.6826 4.11133 81.3955 4.11133C81.0605 4.11133 80.835 4.23438 80.7188 4.48047C80.6025 4.71973 80.5444 5.04102 80.5444 5.44434V14.478C80.5444 14.9771 80.6162 15.3291 80.7598 15.5342C80.9102 15.7393 81.1221 15.8418 81.3955 15.8418C81.7031 15.8418 81.9185 15.7153 82.0415 15.4624C82.1714 15.2095 82.2363 14.8813 82.2363 14.478V11.2275H85.8662V14.6421C85.8662 16.228 85.4663 17.3799 84.6665 18.0977C83.8667 18.8086 82.749 19.1641 81.3135 19.1641ZM87.0762 19V0.953125H90.665V7.40283H92.3672V0.953125H95.9561V19H92.3672V10.8174H90.665V19H87.0762Z" fill="#910404"/>
</svg>
