<svg width="257" height="34" viewBox="0 0 257 34" fill="none" xmlns="http://www.w3.org/2000/svg">
<path d="M0.541992 33L3.61328 1.20312H14.3989L17.416 33H11.3999L10.9482 27.8691H7.11816L6.7207 33H0.541992ZM7.56982 22.7925H10.4604L9.06934 6.62305H8.78027L7.56982 22.7925ZM19.3672 33V1.20312H32.0859V7.3999H25.7627V12.4585H31.7607V18.583H25.7627V33H19.3672ZM34.1455 33V1.20312H43.9014C45.5273 1.20312 46.7559 1.5765 47.5869 2.32324C48.418 3.05794 48.972 4.09375 49.249 5.43066C49.5381 6.75553 49.6826 8.31527 49.6826 10.1099C49.6826 11.8442 49.4598 13.2293 49.0142 14.2651C48.5806 15.3009 47.7555 16.0176 46.5391 16.415C47.5387 16.6198 48.2373 17.1196 48.6348 17.9146C49.0443 18.6974 49.249 19.7152 49.249 20.9678V33H42.98V20.5522C42.98 19.6248 42.7873 19.0527 42.4019 18.8359C42.0285 18.6071 41.4202 18.4927 40.5771 18.4927V33H34.1455ZM40.6133 12.9824H42.1489C43.0282 12.9824 43.4678 12.0249 43.4678 10.1099C43.4678 8.8693 43.3714 8.05632 43.1787 7.6709C42.986 7.28548 42.6247 7.09277 42.0947 7.09277H40.6133V12.9824ZM59.3662 33.2891C56.8249 33.2891 54.8797 32.5243 53.5308 30.9946C52.1938 29.453 51.5254 27.2308 51.5254 24.3281V9.22461C51.5254 6.5026 52.1878 4.43701 53.5127 3.02783C54.8496 1.61865 56.8008 0.914062 59.3662 0.914062C61.9316 0.914062 63.8768 1.61865 65.2017 3.02783C66.5386 4.43701 67.207 6.5026 67.207 9.22461V24.3281C67.207 27.2308 66.5326 29.453 65.1836 30.9946C63.8467 32.5243 61.9076 33.2891 59.3662 33.2891ZM59.4204 27.4355C60.384 27.4355 60.8657 26.5021 60.8657 24.6353V9.11621C60.8657 7.55046 60.396 6.76758 59.4565 6.76758C58.3966 6.76758 57.8667 7.56852 57.8667 9.17041V24.6714C57.8667 25.659 57.9871 26.3696 58.228 26.8032C58.4689 27.2248 58.8664 27.4355 59.4204 27.4355ZM174.612 33V7.30957H170.836V1.20312H184.747V7.30957H180.971V33H174.612ZM194.105 33.2891C191.564 33.2891 189.619 32.5243 188.27 30.9946C186.933 29.453 186.265 27.2308 186.265 24.3281V9.22461C186.265 6.5026 186.927 4.43701 188.252 3.02783C189.589 1.61865 191.54 0.914062 194.105 0.914062C196.671 0.914062 198.616 1.61865 199.941 3.02783C201.278 4.43701 201.946 6.5026 201.946 9.22461V24.3281C201.946 27.2308 201.272 29.453 199.923 30.9946C198.586 32.5243 196.647 33.2891 194.105 33.2891ZM194.16 27.4355C195.123 27.4355 195.605 26.5021 195.605 24.6353V9.11621C195.605 7.55046 195.135 6.76758 194.196 6.76758C193.136 6.76758 192.606 7.56852 192.606 9.17041V24.6714C192.606 25.659 192.726 26.3696 192.967 26.8032C193.208 27.2248 193.606 27.4355 194.16 27.4355ZM211.865 33.2891C209.215 33.2891 207.264 32.5483 206.011 31.0669C204.759 29.5734 204.132 27.3813 204.132 24.4907V1.20312H210.311V24.2378C210.311 24.7677 210.341 25.2796 210.401 25.7734C210.462 26.2552 210.6 26.6527 210.817 26.9658C211.034 27.279 211.383 27.4355 211.865 27.4355C212.359 27.4355 212.714 27.285 212.931 26.9839C213.147 26.6707 213.28 26.2673 213.328 25.7734C213.388 25.2796 213.418 24.7677 213.418 24.2378V1.20312H219.597V24.4907C219.597 27.3813 218.971 29.5734 217.718 31.0669C216.466 32.5483 214.514 33.2891 211.865 33.2891ZM229.443 33.2891C227.143 33.2891 225.288 32.5724 223.879 31.1392C222.482 29.7059 221.783 27.7005 221.783 25.123V10.4531C221.783 7.36979 222.391 5.00911 223.608 3.37109C224.836 1.73307 226.83 0.914062 229.588 0.914062C231.093 0.914062 232.43 1.19108 233.599 1.74512C234.779 2.29915 235.706 3.13021 236.381 4.23828C237.055 5.33431 237.393 6.7194 237.393 8.39355V13.8857H231.069V9.18848C231.069 8.23698 230.949 7.59863 230.708 7.27344C230.467 6.9362 230.094 6.76758 229.588 6.76758C228.998 6.76758 228.6 6.98438 228.396 7.41797C228.191 7.83952 228.088 8.4056 228.088 9.11621V25.0327C228.088 25.9119 228.215 26.5322 228.468 26.8936C228.733 27.2549 229.106 27.4355 229.588 27.4355C230.13 27.4355 230.509 27.2127 230.726 26.7671C230.955 26.3215 231.069 25.7433 231.069 25.0327V19.3057H237.465V25.3218C237.465 28.116 236.76 30.1455 235.351 31.4102C233.942 32.6628 231.973 33.2891 229.443 33.2891ZM239.597 33V1.20312H245.92V12.5669H248.919V1.20312H255.242V33H248.919V18.583H245.92V33H239.597Z" fill="#D9D9D9"/>
<path d="M69.7725 33V1.20312H82.4912V7.3999H76.168V12.4585H82.166V18.583H76.168V33H69.7725ZM84.5508 33V1.20312H94.3066C95.9326 1.20312 97.1611 1.5765 97.9922 2.32324C98.8232 3.05794 99.3773 4.09375 99.6543 5.43066C99.9434 6.75553 100.088 8.31527 100.088 10.1099C100.088 11.8442 99.8651 13.2293 99.4194 14.2651C98.9858 15.3009 98.1608 16.0176 96.9443 16.415C97.944 16.6198 98.6426 17.1196 99.04 17.9146C99.4495 18.6974 99.6543 19.7152 99.6543 20.9678V33H93.3853V20.5522C93.3853 19.6248 93.1925 19.0527 92.8071 18.8359C92.4338 18.6071 91.8255 18.4927 90.9824 18.4927V33H84.5508ZM91.0186 12.9824H92.5542C93.4334 12.9824 93.873 12.0249 93.873 10.1099C93.873 8.8693 93.7767 8.05632 93.584 7.6709C93.3913 7.28548 93.0299 7.09277 92.5 7.09277H91.0186V12.9824ZM102.184 33V1.20312H114.902V7.3457H108.651V13.5425H114.649V19.5225H108.651V26.8032H115.318V33H102.184ZM117.432 33V1.20312H123.972L126.898 16.4331V1.20312H133.041V33H126.826L123.646 17.1016V33H117.432ZM143.267 33.2891C140.966 33.2891 139.111 32.5724 137.702 31.1392C136.305 29.7059 135.606 27.7005 135.606 25.123V10.4531C135.606 7.36979 136.215 5.00911 137.431 3.37109C138.66 1.73307 140.653 0.914062 143.411 0.914062C144.917 0.914062 146.254 1.19108 147.422 1.74512C148.602 2.29915 149.53 3.13021 150.204 4.23828C150.879 5.33431 151.216 6.7194 151.216 8.39355V13.8857H144.893V9.18848C144.893 8.23698 144.772 7.59863 144.531 7.27344C144.29 6.9362 143.917 6.76758 143.411 6.76758C142.821 6.76758 142.424 6.98438 142.219 7.41797C142.014 7.83952 141.912 8.4056 141.912 9.11621V25.0327C141.912 25.9119 142.038 26.5322 142.291 26.8936C142.556 27.2549 142.929 27.4355 143.411 27.4355C143.953 27.4355 144.333 27.2127 144.549 26.7671C144.778 26.3215 144.893 25.7433 144.893 25.0327V19.3057H151.288V25.3218C151.288 28.116 150.583 30.1455 149.174 31.4102C147.765 32.6628 145.796 33.2891 143.267 33.2891ZM153.42 33V1.20312H159.743V12.5669H162.742V1.20312H169.065V33H162.742V18.583H159.743V33H153.42Z" fill="#910404"/>
</svg>
