<svg width="65" height="56" viewBox="0 0 65 56" fill="none" xmlns="http://www.w3.org/2000/svg">
<path d="M12.048 56L0.47178 44.5022L12.048 33.0078L14.4738 35.4129L7.08022 42.7542H57.9127L50.5192 35.4129L52.945 33.0078L64.5212 44.5022L52.945 56L50.5192 53.5914L57.9127 46.2501H7.08022L14.4738 53.5914L12.048 56ZM0 23.125V22.5273C0 21.5321 0.291048 20.6418 0.873145 19.8564C1.45524 19.0733 2.24154 18.4581 3.23204 18.0106C4.62156 17.3697 6.07681 16.8966 7.59777 16.5913C9.12342 16.286 10.6984 16.1333 12.3226 16.1333C13.9492 16.1333 15.5241 16.2848 17.0474 16.5878C18.5708 16.8954 20.026 17.3697 21.4132 18.0106C22.4037 18.4581 23.19 19.0733 23.7721 19.8564C24.3542 20.6418 24.6452 21.5321 24.6452 22.5273V23.125H0ZM40.3548 23.125V22.5273C40.3548 21.5321 40.6458 20.6418 41.2279 19.8564C41.81 19.0733 42.5963 18.4581 43.5868 18.0106C44.974 17.3697 46.4292 16.8966 47.9525 16.5913C49.4782 16.286 51.0532 16.1333 52.6774 16.1333C54.3016 16.1333 55.8754 16.2848 57.3987 16.5878C58.9244 16.8954 60.3808 17.3697 61.768 18.0106C62.7585 18.4581 63.5448 19.0733 64.1269 19.8564C64.7089 20.6418 65 21.5321 65 22.5273V23.125H40.3548ZM12.3191 10.4875C10.8357 10.4875 9.58464 9.98181 8.56597 8.97035C7.5473 7.95888 7.03797 6.71669 7.03797 5.24377C7.03797 3.76853 7.5473 2.52517 8.56597 1.5137C9.58464 0.504567 10.8357 0 12.3191 0C13.8048 0 15.0571 0.504567 16.0757 1.5137C17.092 2.52517 17.6002 3.76853 17.6002 5.24377C17.6002 6.71669 17.092 7.95888 16.0757 8.97035C15.0571 9.98181 13.8048 10.4875 12.3191 10.4875ZM52.6739 10.4875C51.1881 10.4875 49.9359 9.98181 48.9172 8.97035C47.9009 7.95888 47.3928 6.71669 47.3928 5.24377C47.3928 3.76853 47.9009 2.52517 48.9172 1.5137C49.9359 0.504567 51.1881 0 52.6739 0C54.1573 0 55.4083 0.504567 56.427 1.5137C57.4457 2.52517 57.955 3.76853 57.955 5.24377C57.955 6.71669 57.4457 7.95888 56.427 8.97035C55.4083 9.98181 54.1573 10.4875 52.6739 10.4875Z" fill="#FC6464"/>
</svg>
