<svg width="24" height="24" viewBox="0 0 24 24" fill="none" xmlns="http://www.w3.org/2000/svg">
<path d="M8.11124 15.889C8.0175 15.7952 7.96484 15.6681 7.96484 15.5355C7.96484 15.4029 8.0175 15.2758 8.11124 15.182L11.2932 12L8.11124 8.818C8.02016 8.7237 7.96976 8.5974 7.9709 8.4663C7.97204 8.3352 8.02462 8.20979 8.11733 8.11709C8.21003 8.02439 8.33544 7.9718 8.46654 7.97066C8.59763 7.96952 8.72394 8.01992 8.81824 8.111L12.0002 11.293L15.1822 8.111C15.2765 8.01992 15.4028 7.96952 15.5339 7.97066C15.665 7.9718 15.7904 8.02439 15.8831 8.11709C15.9758 8.20979 16.0284 8.3352 16.0296 8.4663C16.0307 8.5974 15.9803 8.7237 15.8892 8.818L12.7072 12L15.8892 15.182C15.9803 15.2763 16.0307 15.4026 16.0296 15.5337C16.0284 15.6648 15.9758 15.7902 15.8831 15.8829C15.7904 15.9756 15.665 16.0282 15.5339 16.0293C15.4028 16.0305 15.2765 15.9801 15.1822 15.889L12.0002 12.707L8.81824 15.889C8.72447 15.9827 8.59732 16.0354 8.46474 16.0354C8.33216 16.0354 8.205 15.9827 8.11124 15.889Z" fill="#910404"/>
<path fill-rule="evenodd" clip-rule="evenodd" d="M12 22C17.523 22 22 17.523 22 12C22 6.477 17.523 2 12 2C6.477 2 2 6.477 2 12C2 17.523 6.477 22 12 22ZM12 21C16.9705 21 21 16.9705 21 12C21 7.0295 16.9705 3 12 3C7.0295 3 3 7.0295 3 12C3 16.9705 7.0295 21 12 21Z" fill="#910404"/>
</svg>
